<svg width="18" height="16" viewBox="0 0 18 16" fill="none" xmlns="http://www.w3.org/2000/svg">
<path d="M1.2148 13.5525C1.88601 13.5525 2.42705 14.1007 2.42705 14.775C2.42705 15.4518 1.88345 15.9974 1.2148 16C0.543598 16 0.00255211 15.4518 0 14.775C0 14.0981 0.543598 13.5525 1.2148 13.5525ZM17.1604 13.9025C17.6248 13.9025 18 14.2808 18 14.7492C18 15.1816 17.6784 15.5368 17.265 15.5882L17.1604 15.5959H5.67078C5.20629 15.5959 4.83113 15.2176 4.82858 14.7492C4.82858 14.3169 5.15015 13.9617 5.56359 13.9077L5.67078 13.9025H17.1604ZM1.2148 6.77626C1.88601 6.77626 2.42705 7.32443 2.42705 7.99871C2.42705 8.67557 1.88345 9.22117 1.2148 9.22374C0.543598 9.22374 0.00255211 8.67557 0 7.99871C0 7.32186 0.543598 6.77626 1.2148 6.77626ZM17.1604 7.12369C17.6248 7.12369 18 7.50201 18 7.97298C18 8.40534 17.6784 8.7605 17.265 8.81197L17.1604 8.81969H5.67078C5.20629 8.81969 4.83113 8.44137 4.82858 7.97298C4.82858 7.54061 5.15015 7.18546 5.56359 7.13141L5.67078 7.12369H17.1604ZM1.2148 0C1.88601 0 2.42705 0.548174 2.42705 1.22245C2.42705 1.89931 1.88345 2.44491 1.2148 2.44491C0.543598 2.44491 0.00255211 1.89673 0 1.22245C0 0.545601 0.543598 0 1.2148 0ZM17.1604 0.347434C17.6248 0.347434 18 0.725752 18 1.19414C18 1.62651 17.6784 1.98166 17.265 2.03571L17.1604 2.04343H5.67078C5.20629 2.04343 4.83113 1.66511 4.82858 1.19414C4.82858 0.761782 5.15015 0.406627 5.56359 0.355155L5.67078 0.347434H17.1604Z" fill="white"/>
</svg>
