<svg width="20" height="18" viewBox="0 0 20 18" fill="none" xmlns="http://www.w3.org/2000/svg">
<path d="M18.4894 5.47778C18.487 7.35679 18.4771 11.8827 18.4894 16.2185C18.4919 17.3815 17.9005 17.9654 16.7154 17.9704C12.145 17.9926 7.6277 18.0025 3.1635 18C2.95308 18 2.74472 17.9584 2.55035 17.8776C2.35599 17.7968 2.17944 17.6783 2.03082 17.529C1.8822 17.3797 1.76442 17.2024 1.68423 17.0074C1.60404 16.8124 1.56302 16.6035 1.5635 16.3926L1.59313 5.52222C1.59313 5.45823 1.57042 5.39631 1.52905 5.34748C1.48768 5.29865 1.43033 5.26608 1.36721 5.25556C-0.206868 4.99259 0.252392 2.35185 0.263503 1.26296C0.266433 0.928951 0.401177 0.609617 0.638406 0.374469C0.875636 0.13932 1.19614 0.00739455 1.53017 0.0074074L18.7672 3.21436e-09C19.0918 -2.3412e-05 19.4032 0.127881 19.6341 0.355982C19.865 0.584082 19.9966 0.893992 20.0005 1.21852C20.0154 2.41852 20.5413 5.25185 18.7079 5.25926C18.5623 5.25926 18.4894 5.3321 18.4894 5.47778ZM18.7154 1.52593C18.7154 1.48172 18.6978 1.43933 18.6665 1.40807C18.6353 1.37682 18.5929 1.35926 18.5487 1.35926H1.73387C1.68967 1.35926 1.64728 1.37682 1.61602 1.40807C1.58477 1.43933 1.56721 1.48172 1.56721 1.52593V3.77778C1.56721 3.82198 1.58477 3.86437 1.61602 3.89563C1.64728 3.92689 1.68967 3.94444 1.73387 3.94444H18.5487C18.5929 3.94444 18.6353 3.92689 18.6665 3.89563C18.6978 3.86437 18.7154 3.82198 18.7154 3.77778V1.52593ZM17.1413 5.45556C17.1413 5.40349 17.1206 5.35357 17.0838 5.31675C17.047 5.27994 16.997 5.25926 16.945 5.25926H3.13017C3.07811 5.25926 3.02818 5.27994 2.99137 5.31675C2.95455 5.35357 2.93387 5.40349 2.93387 5.45556L2.91906 16.4815C2.91906 16.5335 2.93974 16.5835 2.97655 16.6203C3.01337 16.6571 3.06329 16.6778 3.11536 16.6778H16.9302C16.9822 16.6778 17.0322 16.6571 17.069 16.6203C17.1058 16.5835 17.1265 16.5335 17.1265 16.4815L17.1413 5.45556Z" fill="#FF008A"/>
<path d="M9.39376 11.7515L10.3419 12.7367C10.3859 12.7823 10.4204 12.8361 10.4434 12.895C10.4665 12.9539 10.4777 13.0167 10.4763 13.0797C10.4749 13.1428 10.461 13.2049 10.4354 13.2623C10.4098 13.3198 10.373 13.3715 10.3271 13.4144L10.2456 13.4922C9.96167 13.7589 9.68142 13.7539 9.40488 13.4774L7.14191 11.207C7.04941 11.114 6.99748 10.9882 6.99748 10.857C6.99748 10.8528 6.99754 10.8486 6.99764 10.8443C6.99754 10.8401 6.99764 10.8358 6.99764 10.8316C6.99764 10.7004 7.04957 10.5746 7.14207 10.4816L9.40504 8.21123C9.68158 7.93469 9.96183 7.92975 10.2458 8.19642L10.3273 8.27419C10.3731 8.31713 10.41 8.36883 10.4356 8.42629C10.4612 8.48375 10.4751 8.54581 10.4765 8.60888C10.4778 8.67195 10.4667 8.73476 10.4436 8.79366C10.4205 8.85256 10.386 8.90637 10.3421 8.95197L9.39393 9.93716C9.20874 10.1298 9.25072 10.226 9.51985 10.226L13.3087 10.2335C13.3703 10.2334 13.4313 10.2458 13.488 10.2698C13.5447 10.2938 13.596 10.3289 13.6388 10.3732C13.6817 10.4174 13.7152 10.4698 13.7374 10.5272C13.7596 10.5847 13.77 10.646 13.768 10.7075L13.7678 10.8443V10.9811C13.7698 11.0426 13.7594 11.104 13.7372 11.1614C13.715 11.2188 13.6815 11.2712 13.6387 11.3155C13.5958 11.3597 13.5445 11.3949 13.4878 11.4189C13.4311 11.4429 13.3702 11.4552 13.3086 11.4552L9.51969 11.4626C9.25055 11.4626 9.20858 11.5589 9.39376 11.7515Z" fill="#FF008A"/>
</svg>
